<svg xmlns="http://www.w3.org/2000/svg" width="2600" height="620" viewBox="0 0 2600 620">
  <g transform="translate(50, 52) scale(0.96)">
    <path d="M 215 0 L 205 1 L 198 2 L 187 4 L 182 5 L 170 8 L 163 10 L 154 13 L 149 15 L 144 17 L 137 20 L 131 23 L 121 28 L 114 32 L 106 37 L 96 44 L 92 47 L 87 51 L 79 58 L 63 74 L 56 82 L 52 87 L 49 91 L 44 98 L 42 101 L 37 109 L 34 114 L 24 134 L 21 141 L 19 146 L 13 164 L 9 180 L 8 185 L 7 190 L 6 196 L 5 204 L 4 214 L 4 240 L 5 251 L 6 259 L 7 265 L 8 270 L 12 286 L 18 304 L 24 319 L 31 333 L 36 342 L 39 347 L 47 359 L 55 370 L 58 373 L 0 374 L 0 467 L 184 467 L 188 466 L 191 465 L 194 463 L 199 458 L 200 456 L 201 454 L 202 451 L 203 445 L 203 430 L 202 416 L 201 409 L 200 402 L 198 393 L 197 389 L 196 385 L 192 372 L 191 369 L 189 364 L 187 359 L 185 355 L 182 349 L 177 340 L 172 332 L 169 328 L 166 324 L 159 315 L 149 304 L 146 300 L 143 296 L 141 293 L 139 290 L 136 284 L 131 274 L 129 269 L 128 266 L 127 263 L 126 259 L 125 255 L 124 250 L 123 242 L 123 226 L 124 217 L 125 212 L 126 208 L 127 204 L 130 195 L 133 188 L 136 182 L 139 177 L 141 174 L 143 171 L 147 166 L 162 151 L 166 148 L 175 142 L 179 140 L 185 137 L 190 135 L 202 131 L 207 130 L 212 129 L 221 128 L 236 128 L 245 129 L 250 130 L 254 131 L 266 135 L 271 137 L 277 140 L 282 143 L 291 149 L 297 154 L 308 165 L 312 170 L 318 179 L 325 193 L 328 202 L 331 214 L 332 221 L 332 241 L 331 250 L 330 255 L 329 259 L 327 266 L 326 269 L 324 274 L 318 286 L 310 298 L 306 303 L 291 320 L 287 325 L 279 337 L 276 342 L 273 347 L 271 351 L 268 357 L 265 364 L 263 369 L 260 378 L 257 388 L 256 393 L 254 403 L 253 409 L 252 417 L 252 449 L 253 453 L 254 455 L 255 457 L 262 464 L 264 465 L 267 466 L 270 467 L 456 467 L 456 374 L 398 372 L 401 369 L 407 361 L 414 351 L 419 343 L 423 336 L 433 316 L 435 311 L 437 306 L 441 295 L 442 292 L 446 278 L 447 273 L 450 258 L 451 250 L 452 237 L 452 212 L 451 199 L 450 191 L 449 184 L 448 178 L 447 173 L 444 161 L 442 154 L 438 142 L 436 137 L 433 130 L 426 116 L 422 109 L 419 104 L 411 92 L 406 85 L 402 80 L 397 74 L 378 55 L 372 50 L 367 46 L 362 42 L 356 38 L 347 32 L 342 29 L 334 25 L 320 18 L 313 15 L 305 12 L 293 8 L 277 4 L 272 3 L 267 2 L 261 1 L 252 0 Z M 218 8 L 246 8 L 257 9 L 264 10 L 270 11 L 275 12 L 287 15 L 297 18 L 305 21 L 310 23 L 315 25 L 326 30 L 328 31 L 330 32 L 337 36 L 342 39 L 347 42 L 350 44 L 357 49 L 361 52 L 366 56 L 374 63 L 392 81 L 397 87 L 406 99 L 412 108 L 415 113 L 419 120 L 426 134 L 429 141 L 432 149 L 435 158 L 437 165 L 438 169 L 441 184 L 442 190 L 443 198 L 444 211 L 444 238 L 443 249 L 442 256 L 441 262 L 440 267 L 439 272 L 438 276 L 437 280 L 434 290 L 433 293 L 432 296 L 429 304 L 424 316 L 422 320 L 419 326 L 415 333 L 411 340 L 408 345 L 400 357 L 397 361 L 394 365 L 390 370 L 385 376 L 380 381 L 448 383 L 447 459 L 271 459 L 268 458 L 265 456 L 262 453 L 261 451 L 260 449 L 259 441 L 259 432 L 260 417 L 261 409 L 262 403 L 263 397 L 264 393 L 265 389 L 267 382 L 270 373 L 272 368 L 274 363 L 276 359 L 279 353 L 283 346 L 286 341 L 292 332 L 295 328 L 299 323 L 304 317 L 311 310 L 314 306 L 317 302 L 323 293 L 326 288 L 330 280 L 334 270 L 336 263 L 337 259 L 338 254 L 339 248 L 340 238 L 340 226 L 339 216 L 338 210 L 337 206 L 336 202 L 332 190 L 330 185 L 324 174 L 318 165 L 315 161 L 299 145 L 295 142 L 291 139 L 283 134 L 275 130 L 268 127 L 259 124 L 255 123 L 251 122 L 246 121 L 237 120 L 220 120 L 211 121 L 206 122 L 194 125 L 191 126 L 188 127 L 181 130 L 175 133 L 165 139 L 161 142 L 157 145 L 150 151 L 148 153 L 141 161 L 137 166 L 135 169 L 133 172 L 130 177 L 124 189 L 122 195 L 119 204 L 118 208 L 117 213 L 116 219 L 115 231 L 115 238 L 116 248 L 117 254 L 118 259 L 119 263 L 123 275 L 126 282 L 128 286 L 131 292 L 136 300 L 139 304 L 145 312 L 151 318 L 155 323 L 159 328 L 164 335 L 166 338 L 168 341 L 171 346 L 175 353 L 179 361 L 181 366 L 183 371 L 187 382 L 188 386 L 190 394 L 192 403 L 193 409 L 194 416 L 195 428 L 195 445 L 194 450 L 193 452 L 188 457 L 186 458 L 183 459 L 8 458 L 9 382 L 74 382 L 74 380 L 71 376 L 63 367 L 59 362 L 52 352 L 46 343 L 42 336 L 37 327 L 36 325 L 36 323 L 34 321 L 33 319 L 30 312 L 28 307 L 26 302 L 19 281 L 18 277 L 16 268 L 15 263 L 14 257 L 13 250 L 12 237 L 12 217 L 13 204 L 14 196 L 15 190 L 16 185 L 19 172 L 22 162 L 25 153 L 28 145 L 31 138 L 41 118 L 44 113 L 56 95 L 60 90 L 65 84 L 87 62 L 93 57 L 105 48 L 117 40 L 126 35 L 132 32 L 142 27 L 149 24 L 154 22 L 160 20 L 169 17 L 185 13 L 190 12 L 195 11 L 201 10 L 208 9 Z M 419 429 L 415 433 L 414 436 L 374 435 L 374 433 L 371 430 L 369 430 L 366 430 L 364 430 L 360 434 L 360 436 L 360 439 L 360 441 L 363 444 L 365 445 L 369 445 L 371 444 L 375 440 L 415 441 L 419 446 L 422 447 L 424 447 L 427 446 L 429 445 L 431 443 L 432 441 L 432 434 L 431 432 L 429 430 L 427 429 L 425 429 Z M 422 432 L 424 432 L 426 433 L 428 435 L 428 440 L 426 442 L 424 443 L 422 443 L 418 439 L 418 436 Z M 83 418 L 81 420 L 82 424 L 84 425 L 86 424 L 86 418 Z M 70 418 L 68 419 L 69 424 L 71 425 L 73 424 L 74 420 L 72 418 Z M 56 418 L 54 420 L 54 422 L 55 424 L 60 423 L 61 421 L 60 419 Z M 392 417 L 390 419 L 390 422 L 392 424 L 394 424 L 396 422 L 396 419 L 394 417 Z M 318 369 L 316 370 L 313 373 L 312 375 L 313 384 L 305 392 L 300 398 L 299 404 L 298 419 L 298 422 L 338 422 L 340 424 L 340 425 L 342 427 L 344 428 L 349 428 L 353 424 L 353 418 L 352 416 L 351 415 L 349 414 L 343 414 L 338 419 L 304 419 L 302 417 L 302 414 L 303 401 L 304 399 L 313 389 L 317 386 L 324 387 L 326 386 L 328 384 L 329 382 L 330 380 L 330 376 L 328 372 L 326 370 L 323 369 Z M 319 373 L 323 373 L 326 376 L 326 380 L 323 383 L 319 383 L 317 382 L 315 378 L 316 376 Z M 316 355 L 314 357 L 314 359 L 315 361 L 320 360 L 320 357 L 318 355 Z M 106 352 L 103 355 L 104 357 L 130 382 L 147 399 L 148 404 L 148 408 L 150 414 L 150 418 L 148 420 L 143 420 L 99 420 L 99 424 L 155 422 L 154 415 L 153 408 L 152 402 L 151 397 L 150 395 L 143 388 Z M 89 335 L 89 339 L 91 341 L 95 340 L 96 338 L 96 336 L 94 334 Z M 83 321 L 81 322 L 80 324 L 81 326 L 83 327 L 85 326 L 85 322 Z M 417 252 L 416 258 L 416 263 L 414 272 L 413 276 L 411 283 L 407 295 L 404 302 L 397 316 L 394 321 L 392 324 L 389 326 L 386 324 L 379 324 L 377 325 L 373 329 L 372 331 L 372 339 L 373 341 L 377 345 L 376 347 L 372 351 L 372 352 L 368 357 L 359 367 L 327 398 L 322 406 L 415 407 L 416 410 L 418 412 L 420 413 L 422 413 L 425 413 L 427 413 L 429 412 L 431 410 L 432 408 L 432 401 L 431 399 L 428 396 L 425 395 L 422 395 L 419 396 L 414 402 L 412 402 L 332 400 L 342 391 L 344 389 L 344 388 L 346 386 L 347 386 L 349 384 L 355 378 L 356 377 L 367 365 L 373 358 L 378 352 L 380 348 L 382 346 L 386 346 L 390 344 L 392 342 L 393 340 L 394 336 L 393 331 L 397 326 L 401 319 L 410 301 L 413 293 L 414 290 L 415 287 L 418 276 L 419 272 L 420 268 L 421 257 L 422 256 L 421 251 Z M 422 399 L 424 399 L 426 400 L 428 402 L 428 407 L 426 409 L 423 410 L 421 409 L 419 407 L 418 405 L 418 403 Z M 380 327 L 385 327 L 387 328 L 390 331 L 391 333 L 391 338 L 390 340 L 387 343 L 385 344 L 380 344 L 375 339 L 375 332 Z M 381 333 L 380 335 L 380 337 L 382 339 L 386 338 L 387 336 L 386 334 L 384 332 Z M 34 252 L 34 259 L 37 274 L 38 278 L 44 296 L 46 301 L 48 306 L 57 324 L 60 329 L 65 337 L 67 340 L 69 343 L 78 355 L 82 360 L 89 368 L 121 399 L 121 402 L 40 401 L 37 397 L 35 396 L 28 396 L 26 397 L 24 399 L 23 401 L 22 405 L 23 409 L 27 413 L 29 414 L 34 414 L 36 413 L 38 412 L 39 411 L 40 408 L 42 406 L 58 406 L 133 407 L 133 404 L 131 402 L 96 368 L 89 360 L 84 354 L 77 345 L 72 338 L 70 335 L 68 332 L 65 327 L 61 320 L 56 311 L 51 300 L 49 295 L 46 287 L 45 284 L 42 274 L 41 270 L 40 265 L 39 260 L 39 254 L 38 252 Z M 29 400 L 34 400 L 37 403 L 37 406 L 36 408 L 35 409 L 33 410 L 30 410 L 27 407 L 27 402 Z M 55 203 L 53 205 L 54 210 L 58 210 L 60 208 L 60 205 L 58 203 Z M 78 186 L 78 188 L 77 189 L 76 193 L 75 197 L 74 202 L 73 209 L 72 217 L 72 246 L 73 255 L 75 263 L 75 267 L 71 271 L 70 273 L 70 279 L 71 281 L 74 284 L 76 285 L 82 285 L 84 284 L 87 281 L 88 279 L 88 272 L 87 270 L 85 268 L 80 266 L 79 263 L 78 258 L 77 252 L 77 239 L 76 238 L 76 226 L 77 213 L 78 206 L 79 201 L 80 196 L 82 191 L 82 187 L 80 186 Z M 79 270 L 82 271 L 84 273 L 84 278 L 81 281 L 77 281 L 74 278 L 74 274 L 77 271 Z M 58 187 L 57 187 L 56 191 L 58 193 L 61 193 L 63 191 L 63 189 L 62 187 L 60 186 Z M 61 172 L 60 174 L 60 176 L 62 178 L 66 177 L 66 176 L 67 174 L 66 172 L 64 171 Z M 392 170 L 390 171 L 391 175 L 393 179 L 394 183 L 396 192 L 397 198 L 398 206 L 383 220 L 380 223 L 380 241 L 379 251 L 378 257 L 376 267 L 375 272 L 373 278 L 370 287 L 368 292 L 361 306 L 358 311 L 353 319 L 349 324 L 346 328 L 334 340 L 330 346 L 343 359 L 356 345 L 348 337 L 348 336 L 346 334 L 348 332 L 348 331 L 351 327 L 354 324 L 357 320 L 358 317 L 361 314 L 364 309 L 371 295 L 374 288 L 376 282 L 379 273 L 382 259 L 383 253 L 384 240 L 384 225 L 389 220 L 390 219 L 401 209 L 401 198 L 400 192 L 399 186 L 398 181 L 397 177 L 396 174 L 395 171 L 394 169 Z M 67 157 L 65 159 L 65 162 L 67 164 L 71 163 L 72 161 L 72 159 L 70 157 Z M 387 156 L 386 156 L 386 162 L 391 161 L 392 159 L 391 157 L 389 155 Z M 380 142 L 379 142 L 378 146 L 380 148 L 382 148 L 384 147 L 384 143 L 382 141 Z M 373 128 L 371 133 L 371 134 L 376 134 L 376 133 L 377 131 L 376 129 Z M 336 116 L 335 120 L 340 124 L 348 133 L 351 137 L 354 141 L 360 150 L 363 156 L 368 166 L 370 171 L 373 182 L 374 184 L 373 186 L 370 189 L 370 195 L 370 197 L 371 199 L 373 201 L 375 202 L 382 202 L 384 201 L 387 198 L 388 196 L 388 189 L 386 186 L 383 184 L 379 184 L 377 182 L 376 178 L 375 172 L 374 169 L 371 162 L 364 148 L 356 136 L 353 132 L 345 124 L 345 123 L 338 116 Z M 379 187 L 381 188 L 384 191 L 384 195 L 381 198 L 377 198 L 374 195 L 374 191 L 375 189 Z M 363 116 L 362 118 L 362 120 L 364 122 L 367 122 L 369 120 L 368 116 L 367 116 Z M 92 116 L 88 121 L 82 130 L 79 135 L 75 142 L 74 145 L 73 150 L 74 150 L 76 151 L 77 149 L 83 137 L 86 132 L 91 125 L 95 121 L 97 118 L 97 116 L 95 114 Z M 160 106 L 157 107 L 153 111 L 152 114 L 152 118 L 148 122 L 142 126 L 132 135 L 131 136 L 123 145 L 115 156 L 112 161 L 109 166 L 109 168 L 107 170 L 106 172 L 103 179 L 101 184 L 97 197 L 96 201 L 95 206 L 94 212 L 93 219 L 92 229 L 92 241 L 93 252 L 94 258 L 95 263 L 96 268 L 97 272 L 99 275 L 99 278 L 100 281 L 102 286 L 104 291 L 110 303 L 119 316 L 120 318 L 120 320 L 119 328 L 124 333 L 128 334 L 132 333 L 136 337 L 140 342 L 143 346 L 149 355 L 152 360 L 158 372 L 161 379 L 165 391 L 168 403 L 170 414 L 171 423 L 170 437 L 27 437 L 27 441 L 85 441 L 86 442 L 177 442 L 177 429 L 176 419 L 175 411 L 174 405 L 172 396 L 171 392 L 170 388 L 169 385 L 168 382 L 165 374 L 161 365 L 158 359 L 155 354 L 153 351 L 151 348 L 146 341 L 143 337 L 138 332 L 138 331 L 136 329 L 138 324 L 137 320 L 136 318 L 134 316 L 132 315 L 129 314 L 125 315 L 121 311 L 119 308 L 116 303 L 112 296 L 112 294 L 110 292 L 108 287 L 106 282 L 103 273 L 101 266 L 100 262 L 99 257 L 98 250 L 98 221 L 99 213 L 100 208 L 101 203 L 102 199 L 103 195 L 107 183 L 109 178 L 116 164 L 124 152 L 127 148 L 134 140 L 141 133 L 147 128 L 152 124 L 154 123 L 156 123 L 159 125 L 163 125 L 166 124 L 170 120 L 171 118 L 171 113 L 169 109 L 166 107 L 164 106 Z M 160 110 L 164 110 L 167 113 L 167 117 L 166 119 L 165 120 L 163 121 L 160 121 L 156 117 L 156 114 L 157 112 L 158 111 Z M 291 105 L 289 106 L 285 110 L 284 112 L 284 118 L 286 120 L 286 121 L 287 122 L 289 123 L 292 124 L 295 124 L 298 123 L 300 121 L 302 123 L 303 123 L 309 128 L 327 146 L 331 151 L 337 160 L 340 165 L 346 177 L 348 182 L 352 194 L 353 198 L 354 202 L 355 207 L 356 212 L 357 221 L 357 243 L 356 251 L 355 257 L 354 262 L 353 266 L 352 270 L 349 279 L 343 293 L 338 302 L 332 311 L 329 315 L 326 319 L 321 325 L 315 331 L 310 337 L 307 341 L 302 348 L 300 351 L 297 356 L 287 376 L 283 388 L 279 404 L 278 410 L 277 418 L 276 429 L 276 441 L 334 441 L 334 437 L 282 436 L 282 420 L 283 412 L 284 406 L 285 401 L 286 397 L 287 393 L 289 387 L 292 378 L 294 373 L 296 369 L 299 363 L 303 356 L 309 347 L 312 343 L 317 337 L 330 323 L 333 319 L 338 312 L 343 304 L 347 297 L 350 291 L 353 284 L 356 276 L 357 273 L 361 257 L 362 249 L 363 236 L 362 215 L 361 207 L 357 191 L 353 179 L 349 170 L 346 164 L 340 154 L 335 147 L 331 142 L 315 126 L 310 122 L 306 120 L 303 117 L 303 112 L 302 110 L 301 108 L 300 107 L 298 106 L 296 105 Z M 292 109 L 295 109 L 297 110 L 298 111 L 299 113 L 299 116 L 295 120 L 292 120 L 288 116 L 288 113 Z M 321 105 L 322 109 L 326 108 L 326 105 L 324 104 Z M 164 86 L 162 87 L 159 89 L 157 89 L 155 90 L 146 95 L 140 99 L 131 105 L 125 110 L 109 126 L 105 131 L 102 135 L 96 144 L 92 152 L 89 155 L 86 155 L 83 156 L 81 158 L 80 160 L 79 162 L 79 166 L 80 168 L 81 170 L 82 171 L 84 172 L 88 173 L 91 172 L 93 171 L 95 169 L 96 167 L 96 161 L 94 158 L 94 156 L 97 150 L 105 138 L 108 134 L 113 128 L 129 112 L 138 105 L 147 99 L 154 95 L 156 94 L 158 93 L 160 93 L 162 92 L 164 91 Z M 291 85 L 289 87 L 290 90 L 292 90 L 297 92 L 301 94 L 307 97 L 312 101 L 314 102 L 316 100 L 316 98 L 313 96 L 310 94 L 294 86 Z M 280 68 L 280 72 L 302 72 L 315 79 L 323 84 L 326 86 L 330 89 L 335 93 L 340 98 L 340 100 L 339 106 L 340 108 L 343 111 L 346 112 L 349 112 L 352 111 L 356 107 L 357 104 L 357 101 L 355 97 L 353 95 L 351 94 L 343 94 L 338 90 L 334 86 L 330 83 L 321 77 L 316 74 L 305 68 Z M 158 35 L 156 35 L 154 36 L 151 39 L 150 41 L 150 44 L 148 46 L 144 48 L 133 53 L 128 56 L 123 59 L 114 65 L 110 68 L 105 72 L 100 76 L 82 94 L 76 101 L 67 113 L 65 116 L 63 119 L 60 124 L 56 131 L 55 133 L 55 135 L 52 139 L 51 141 L 47 150 L 44 158 L 42 164 L 39 173 L 38 177 L 37 181 L 35 190 L 34 196 L 33 202 L 33 211 L 31 216 L 26 220 L 25 222 L 25 227 L 26 230 L 28 232 L 30 233 L 33 234 L 35 234 L 39 232 L 49 241 L 54 246 L 55 250 L 55 258 L 56 264 L 57 269 L 58 273 L 60 280 L 63 290 L 64 293 L 66 298 L 70 305 L 70 307 L 71 309 L 72 311 L 75 312 L 83 311 L 84 310 L 91 311 L 94 316 L 94 317 L 97 322 L 99 325 L 101 328 L 104 332 L 108 337 L 115 345 L 133 363 L 138 366 L 139 362 L 117 341 L 112 335 L 108 330 L 105 326 L 100 319 L 97 314 L 94 307 L 92 305 L 83 307 L 74 306 L 74 304 L 70 296 L 64 278 L 63 274 L 62 270 L 61 265 L 60 260 L 59 254 L 59 244 L 55 240 L 45 232 L 42 228 L 43 223 L 42 220 L 38 217 L 37 212 L 38 203 L 40 192 L 41 187 L 42 182 L 46 168 L 50 157 L 55 145 L 57 141 L 60 135 L 64 128 L 69 120 L 71 117 L 73 114 L 76 110 L 80 105 L 84 100 L 95 88 L 98 85 L 107 77 L 119 68 L 128 62 L 133 59 L 142 54 L 148 51 L 150 51 L 152 50 L 156 53 L 162 53 L 164 52 L 167 49 L 168 47 L 168 40 L 167 38 L 165 36 L 163 35 L 161 35 Z M 294 32 L 290 34 L 288 36 L 287 38 L 286 40 L 286 44 L 287 47 L 290 50 L 292 51 L 294 52 L 297 52 L 300 51 L 303 48 L 305 48 L 310 51 L 321 56 L 328 60 L 331 62 L 334 64 L 341 69 L 345 72 L 351 77 L 372 98 L 377 104 L 384 113 L 390 122 L 393 127 L 397 134 L 399 138 L 400 142 L 402 144 L 407 156 L 409 162 L 412 171 L 415 183 L 416 188 L 417 194 L 418 201 L 419 211 L 418 216 L 414 219 L 413 221 L 413 229 L 411 231 L 398 242 L 397 244 L 397 251 L 396 257 L 395 263 L 394 268 L 393 272 L 392 276 L 388 288 L 387 290 L 383 291 L 381 292 L 379 294 L 378 296 L 378 302 L 379 304 L 381 306 L 383 307 L 388 307 L 392 305 L 393 303 L 394 301 L 394 297 L 391 293 L 391 291 L 392 288 L 397 275 L 398 271 L 399 266 L 400 260 L 401 254 L 401 246 L 411 236 L 416 232 L 418 232 L 425 233 L 427 232 L 430 229 L 431 227 L 431 221 L 430 219 L 427 216 L 426 216 L 424 214 L 424 206 L 423 197 L 422 191 L 420 180 L 419 176 L 417 169 L 415 162 L 414 159 L 411 151 L 409 146 L 406 139 L 397 122 L 391 113 L 383 102 L 379 97 L 371 88 L 362 79 L 354 72 L 342 63 L 330 55 L 325 52 L 319 49 L 317 48 L 309 45 L 307 44 L 305 42 L 305 39 L 303 35 L 300 33 L 297 32 Z M 296 36 L 298 37 L 301 40 L 301 44 L 298 47 L 296 48 L 293 47 L 291 45 L 290 43 L 290 41 L 291 39 L 293 37 Z M 207 21 L 206 34 L 201 34 L 199 35 L 197 41 L 197 44 L 184 45 L 185 49 L 197 50 L 196 57 L 184 57 L 184 61 L 197 62 L 196 69 L 153 69 L 145 73 L 138 77 L 132 81 L 123 87 L 118 91 L 114 95 L 112 95 L 105 94 L 103 95 L 101 97 L 100 99 L 100 106 L 101 108 L 103 110 L 105 111 L 112 111 L 114 110 L 116 108 L 117 106 L 117 99 L 122 94 L 126 91 L 130 88 L 133 86 L 136 84 L 144 79 L 148 77 L 154 74 L 163 73 L 165 73 L 171 74 L 197 74 L 196 81 L 185 84 L 197 85 L 197 88 L 198 92 L 200 94 L 207 95 L 208 108 L 211 107 L 212 94 L 219 95 L 220 108 L 223 107 L 224 94 L 231 95 L 231 106 L 232 108 L 235 108 L 235 96 L 237 94 L 244 95 L 244 108 L 247 108 L 247 97 L 248 95 L 254 94 L 256 92 L 257 90 L 258 84 L 270 84 L 270 80 L 257 79 L 258 72 L 270 72 L 269 68 L 257 67 L 258 61 L 270 60 L 270 57 L 259 57 L 257 55 L 257 50 L 259 48 L 270 48 L 269 44 L 257 43 L 257 38 L 256 36 L 254 34 L 248 33 L 247 21 L 244 21 L 244 32 L 242 34 L 236 33 L 235 21 L 232 21 L 232 32 L 230 34 L 225 34 L 223 32 L 223 21 L 219 22 L 218 34 L 211 33 L 211 21 Z M 203 38 L 253 39 L 253 88 L 251 90 L 202 89 Z M 207 44 L 207 84 L 247 84 L 247 43 Z" fill="#FFD400" fill-rule="evenodd" />
  </g>
  <text x="560" y="260" font-family="Inter, Arial, sans-serif" font-size="210" font-weight="800" letter-spacing="-6" fill="#FFFFFF">OMEGA</text>
  <text x="1400" y="260" font-family="Inter, Arial, sans-serif" font-size="210" font-weight="800" letter-spacing="-6" fill="#FFD400">IMPORTS</text>
  <text x="565" y="382" font-family="Inter, Arial, sans-serif" font-size="62" font-weight="700" letter-spacing="12" fill="#FFFFFF">COMPONENTES QUE FAZEM MAIS</text>
</svg>